<?xml version="1.0" encoding="utf-8"?>
<!-- Generator: Adobe Illustrator 18.0.0, SVG Export Plug-In . SVG Version: 6.00 Build 0)  -->
<!DOCTYPE svg PUBLIC "-//W3C//DTD SVG 1.1//EN" "http://www.w3.org/Graphics/SVG/1.1/DTD/svg11.dtd">
<svg version="1.1" id="Layer_1" xmlns="http://www.w3.org/2000/svg" xmlns:xlink="http://www.w3.org/1999/xlink" x="0px" y="0px"
	 viewBox="0 0 36 36" enable-background="new 0 0 36 36" xml:space="preserve">
<g>
	<g>
		<path fill="#FFFFFF" d="M28.8,12.5c-1.8,0-4.6,0-6.3,0c-0.5,0-1.5,0-0.8-1.1c1-1.9,3-5.9,4.3-8.1c0.7-1.1,0.8-1.8-0.4-1.8
			c-2.7,0-9.1,0-12,0c-1.1,0-1.6,0.5-2.1,1.6c-1.4,3.5-4.7,12.1-5.9,15.7c-0.4,1.2,0.3,1.7,1.2,1.7c1.8,0,5,0,6.7,0
			c0.6,0,1.2,0.1,0.8,1.4c-0.8,2.3-2,7-2.8,9.7c0,0-0.8,3.7,2.4,0.8C18.1,28.2,25.4,17.7,29,14C29.7,13.4,29.7,12.5,28.8,12.5z
			 M20.7,21.1c-2.2,2.8-4.4,5.7-6.3,7.8c0.1-0.2,0.1-0.5,0.2-0.7c0.6-2.1,1.2-4.3,1.7-5.7l0,0l0,0c0.3-1.2,0.2-2.1-0.3-2.9
			c-0.5-0.7-1.4-1.1-2.4-1.1H7.9c1.3-3.7,3.9-10.4,5.2-13.8l0.3-0.8c0.1-0.2,0.2-0.3,0.2-0.4c0,0,0,0,0,0h10
			c-1.2,2.2-2.7,5.2-3.6,6.9c-0.7,1.3-0.5,2.2-0.2,2.8c0.7,1.3,2.2,1.3,2.7,1.3h3.4C24.4,16.3,22.6,18.6,20.7,21.1z"/>
	</g>
</g>
</svg>
