<svg xmlns="http://www.w3.org/2000/svg" width="64" height="64" viewBox="0 0 64 64">
  <title>Artboard 1</title>
  <g>
    <rect width="64" height="64" fill="#fff" fill-opacity="0"/>
    <path d="M32,56.55A24.55,24.55,0,1,1,56.55,32,24.58,24.58,0,0,1,32,56.55Zm0-47A22.45,22.45,0,1,0,54.45,32,22.48,22.48,0,0,0,32,9.55Z" fill="#fff" opacity="0.6" style="isolation: isolate"/>
  </g>
  <g opacity="0.39">
    <g>
      <path d="M45.42,29a1.49,1.49,0,0,1-1.49-1.49,3,3,0,1,0-6,0,1.49,1.49,0,0,1-3,0,6,6,0,1,1,11.92,0A1.49,1.49,0,0,1,45.42,29Z" fill="#fff"/>
      <path d="M27.53,29A1.49,1.49,0,0,1,26,27.51a3,3,0,1,0-6,0,1.49,1.49,0,0,1-3,0,6,6,0,1,1,11.92,0A1.49,1.49,0,0,1,27.53,29Z" fill="#fff"/>
    </g>
    <path d="M47.85,37.16a1.48,1.48,0,0,0-1.27-.71H17.42a1.49,1.49,0,0,0-1.33,2.16,17.84,17.84,0,0,0,31.81,0A1.5,1.5,0,0,0,47.85,37.16Z" fill="#fff"/>
  </g>
</svg>
