<?xml version="1.0" encoding="utf-8"?>
<!-- Generator: Adobe Illustrator 18.0.0, SVG Export Plug-In . SVG Version: 6.00 Build 0)  -->
<!DOCTYPE svg PUBLIC "-//W3C//DTD SVG 1.1//EN" "http://www.w3.org/Graphics/SVG/1.1/DTD/svg11.dtd">
<svg version="1.1" id="Layer_1" xmlns="http://www.w3.org/2000/svg" xmlns:xlink="http://www.w3.org/1999/xlink" x="0px" y="0px"
	 viewBox="0 0 64 64" enable-background="new 0 0 64 64" xml:space="preserve">
<path id="Home" display="none" fill="none" stroke="#FFFFFF" stroke-width="2" stroke-linejoin="round" stroke-miterlimit="10" d="
	M28.7,7.5L8.3,24c-0.4,0.3-0.6,0.7-0.6,1.2v31.1c0,0.8,0.7,1.5,1.5,1.5h13.6c0.8,0,1.5-0.7,1.5-1.5V36.5c0-0.8,0.7-1.5,1.5-1.5h12.1
	c0.8,0,1.5,0.7,1.5,1.5v19.7c0,0.8,0.7,1.5,1.5,1.5h13.6c0.8,0,1.5-0.7,1.5-1.5V25.1c0-0.5-0.2-0.9-0.6-1.2L35.3,7.5
	C33.4,5.9,30.6,5.9,28.7,7.5z"/>
<g id="Local" display="none">
	
		<circle display="inline" fill="none" stroke="#FFFFFF" stroke-width="2" stroke-linejoin="round" stroke-miterlimit="10" cx="32" cy="27.6" r="7.6"/>
	<path display="inline" fill="none" stroke="#FFFFFF" stroke-width="2" stroke-linejoin="round" stroke-miterlimit="10" d="M32,6.4
		c11.7,0,21.2,9.5,21.2,21.2c0,3.1-0.7,6-1.8,8.6c-1,2.2-2.3,4.2-3.9,5.9L32,57.6L16.5,42.1c-1.6-1.7-2.9-3.7-3.9-5.9
		c-1.2-2.6-1.8-5.5-1.8-8.6C10.8,15.9,20.3,6.4,32,6.4z"/>
</g>
<g id="Federation">
	<circle fill="none" stroke="#FFFFFF" stroke-width="2" stroke-miterlimit="10" cx="32" cy="32" r="25.7"/>
	<ellipse fill="none" stroke="#FFFFFF" stroke-width="2" stroke-miterlimit="10" cx="32" cy="32" rx="13.6" ry="25.7"/>
	<path fill="none" stroke="#FFFFFF" stroke-width="2" stroke-miterlimit="10" d="M50.1,13.7c-2.9,4.5-10.4,7.7-18.1,7.7
		s-15.3-3.1-18.1-7.7"/>
	<path fill="none" stroke="#FFFFFF" stroke-width="2" stroke-miterlimit="10" d="M13.9,50.3c2.9-4.5,10.4-7.7,18.1-7.7
		s15.3,3.1,18.1,7.7"/>
	<line fill="none" stroke="#FFFFFF" stroke-width="2" stroke-miterlimit="10" x1="6.3" y1="32" x2="57.7" y2="32"/>
	<line fill="none" stroke="#FFFFFF" stroke-width="2" stroke-miterlimit="10" x1="32" y1="6.3" x2="32" y2="57.7"/>
</g>
<g id="Search" display="none">
	
		<circle display="inline" fill="none" stroke="#FFFFFF" stroke-width="2" stroke-linejoin="round" stroke-miterlimit="10" cx="29" cy="29" r="21.2"/>
	
		<line display="inline" fill="none" stroke="#FFFFFF" stroke-width="2" stroke-linejoin="round" stroke-miterlimit="10" x1="56.2" y1="56.2" x2="44.1" y2="44.1"/>
</g>
<g id="Notification" display="none">
	<path display="inline" fill="none" stroke="#FFFFFF" stroke-width="2" stroke-linejoin="round" stroke-miterlimit="10" d="
		M49.8,55.8c1.5,1.7,3.6,2.7,6,2.7c1.6,0,3.1-0.5,4.3-1.3c-2.5-1.4-4.2-3.9-4.7-6.8c1.9-2.9,3.1-6.4,3.1-10.1
		c0-10-8.1-18.2-18.2-18.2c-10,0-18.2,8.1-18.2,18.2s8.1,18.2,18.2,18.2C43.7,58.5,47,57.5,49.8,55.8z"/>
	<path display="inline" fill="none" stroke="#FFFFFF" stroke-width="2" stroke-linejoin="round" stroke-miterlimit="10" d="
		M17.6,38.2c-1.5-0.4-2.9-1-4.2-1.8c-1.3,1.5-3.3,2.5-5.5,2.5c-1.5,0-2.8-0.4-4-1.2c2.3-1.3,3.9-3.5,4.3-6.2
		c-1.8-2.6-2.8-5.8-2.8-9.3c0-9.2,7.5-16.7,16.7-16.7c7.7,0,14.1,5.2,16.1,12.2"/>
</g>
</svg>
