<?xml version="1.0" encoding="utf-8"?>
<!-- Generator: Adobe Illustrator 18.0.0, SVG Export Plug-In . SVG Version: 6.00 Build 0)  -->
<!DOCTYPE svg PUBLIC "-//W3C//DTD SVG 1.1//EN" "http://www.w3.org/Graphics/SVG/1.1/DTD/svg11.dtd">
<svg version="1.1" id="Layer_1" xmlns="http://www.w3.org/2000/svg" xmlns:xlink="http://www.w3.org/1999/xlink" x="0px" y="0px"
	 viewBox="0 0 64 64" enable-background="new 0 0 64 64" xml:space="preserve">
<path id="Home" fill="none" stroke="#FFFFFF" stroke-width="3" stroke-linejoin="round" stroke-miterlimit="10" d="M28.8,8.2L9,24.2
	c-0.3,0.3-0.5,0.7-0.5,1.1v30.2c0,0.8,0.7,1.5,1.5,1.5h13.2c0.8,0,1.5-0.7,1.5-1.5V36.4c0-0.8,0.7-1.5,1.5-1.5h11.8
	c0.8,0,1.5,0.7,1.5,1.5v19.1c0,0.8,0.7,1.5,1.5,1.5h13.2c0.8,0,1.5-0.7,1.5-1.5V25.3c0-0.4-0.2-0.9-0.5-1.1l-19.7-16
	C33.4,6.6,30.6,6.6,28.8,8.2z"/>
<g id="Local" display="none">
	
		<circle display="inline" fill="none" stroke="#FFFFFF" stroke-width="2" stroke-linejoin="round" stroke-miterlimit="10" cx="32" cy="27.8" r="7.4"/>
	<path display="inline" fill="none" stroke="#FFFFFF" stroke-width="2" stroke-linejoin="round" stroke-miterlimit="10" d="M32,7.2
		c11.4,0,20.6,9.2,20.6,20.6c0,3-0.6,5.8-1.8,8.4c-0.9,2.1-2.2,4-3.8,5.7l-15,15l-15-15c-1.6-1.7-2.9-3.6-3.8-5.7
		c-1.1-2.6-1.8-5.4-1.8-8.4C11.4,16.4,20.6,7.2,32,7.2z"/>
</g>
<g id="Federation" display="none">
	<circle display="inline" fill="none" stroke="#FFFFFF" stroke-width="2" stroke-miterlimit="10" cx="32" cy="32" r="25"/>
	
		<ellipse display="inline" fill="none" stroke="#FFFFFF" stroke-width="2" stroke-miterlimit="10" cx="32" cy="32" rx="13.2" ry="25"/>
	<path display="inline" fill="none" stroke="#FFFFFF" stroke-width="2" stroke-miterlimit="10" d="M49.6,14.3
		c-2.8,4.4-10.1,7.4-17.6,7.4s-14.8-3-17.6-7.4"/>
	<path display="inline" fill="none" stroke="#FFFFFF" stroke-width="2" stroke-miterlimit="10" d="M14.4,49.7
		c2.8-4.4,10.1-7.4,17.6-7.4s14.8,3,17.6,7.4"/>
	<line display="inline" fill="none" stroke="#FFFFFF" stroke-width="2" stroke-miterlimit="10" x1="7" y1="32" x2="57" y2="32"/>
	<line display="inline" fill="none" stroke="#FFFFFF" stroke-width="2" stroke-miterlimit="10" x1="32" y1="7" x2="32" y2="57"/>
</g>
<g id="Search" display="none">
	
		<circle display="inline" fill="none" stroke="#FFFFFF" stroke-width="2" stroke-linejoin="round" stroke-miterlimit="10" cx="29.1" cy="29.1" r="20.6"/>
	
		<line display="inline" fill="none" stroke="#FFFFFF" stroke-width="2" stroke-linejoin="round" stroke-miterlimit="10" x1="55.5" y1="55.5" x2="43.8" y2="43.8"/>
</g>
<path id="Notification_1_" display="none" fill="none" stroke="#FFFFFF" stroke-width="2" stroke-linejoin="round" stroke-miterlimit="10" d="
	M44,53.3c2,2.3,4.9,3.7,8.2,3.7c2.2,0,4.2-0.6,5.9-1.8c-3.4-1.9-5.8-5.3-6.5-9.3c2.7-4,4.2-8.8,4.2-13.9c0-13.8-11.2-25-25-25
	s-25,11.2-25,25s11.2,25,25,25C35.7,57,40.2,55.6,44,53.3z"/>
</svg>
