<?xml version="1.0" encoding="utf-8"?>
<!-- Generator: Adobe Illustrator 16.0.0, SVG Export Plug-In . SVG Version: 6.00 Build 0)  -->
<!DOCTYPE svg PUBLIC "-//W3C//DTD SVG 1.1//EN" "http://www.w3.org/Graphics/SVG/1.1/DTD/svg11.dtd">
<svg version="1.1" id="Layer_1" xmlns="http://www.w3.org/2000/svg" xmlns:xlink="http://www.w3.org/1999/xlink" x="0px" y="0px"
	 width="48px" height="48px" viewBox="0 0 48 48" enable-background="new 0 0 48 48" xml:space="preserve">
<g>
	<path fill="none" stroke="#FFFFFF" stroke-width="2.2" stroke-miterlimit="10" stroke-opacity="0.9" d="M45.45,22.493
		c0.311,0.208,0.521,0.468,0.623,0.779c0.104,0.312,0.172,0.623,0.206,0.938c0.035,0.311-0.008,0.631-0.13,0.959
		c-0.12,0.329-0.283,0.617-0.493,0.858c-0.175,0.139-0.319,0.25-0.44,0.338c-0.123,0.086-0.271,0.165-0.44,0.232
		c-0.176,0.071-0.339,0.121-0.494,0.156c-0.157,0.035-0.339,0.053-0.546,0.053c-0.105,0-0.244-0.009-0.417-0.027
		c-0.173-0.016-0.319-0.061-0.442-0.13c-0.123-0.07-0.26-0.138-0.416-0.207c-0.154-0.068-0.268-0.173-0.336-0.312l-1.455-1.301
		l-4.625,17.876c-0.103,0.279-0.227,0.533-0.364,0.757c-0.14,0.225-0.32,0.415-0.546,0.571c-0.225,0.154-0.459,0.284-0.701,0.39
		c-0.243,0.104-0.52,0.157-0.831,0.157H14.422c-0.313,0-0.592-0.055-0.832-0.157c-0.244-0.104-0.486-0.234-0.729-0.39
		c-0.241-0.156-0.424-0.348-0.546-0.571s-0.253-0.478-0.389-0.757L7.35,24.83l-1.453,1.301c-0.209,0.242-0.477,0.424-0.805,0.544
		c-0.331,0.123-0.652,0.174-0.961,0.156c-0.313-0.019-0.625-0.093-0.938-0.233c-0.31-0.138-0.571-0.328-0.778-0.57
		c-0.277-0.241-0.459-0.529-0.545-0.858c-0.088-0.328-0.141-0.649-0.158-0.959c-0.017-0.313,0.055-0.625,0.209-0.938
		c0.156-0.312,0.34-0.57,0.547-0.779L22.321,4.095c0.207-0.243,0.469-0.417,0.779-0.52c0.313-0.104,0.615-0.156,0.908-0.156
		s0.602,0.052,0.913,0.156c0.312,0.104,0.572,0.276,0.776,0.52L45.45,22.493L45.45,22.493z"/>
	<path opacity="0.4" fill="#FFFFFF" d="M23.834,25.396c0.727,0.034,1.385-0.095,1.975-0.389c0.588-0.295,1.117-0.658,1.584-1.092
		c0.468-0.434,0.833-0.962,1.09-1.584c0.262-0.625,0.409-1.266,0.443-1.923c-0.034-0.729-0.182-1.388-0.443-1.976
		c-0.257-0.589-0.622-1.118-1.09-1.586c-0.467-0.468-0.996-0.831-1.584-1.09c-0.59-0.261-1.248-0.408-1.975-0.442
		c-0.658,0.034-1.301,0.182-1.924,0.442c-0.623,0.259-1.162,0.622-1.609,1.09c-0.452,0.468-0.816,0.997-1.096,1.586
		c-0.274,0.588-0.396,1.246-0.361,1.976c-0.035,0.657,0.087,1.298,0.361,1.923c0.278,0.622,0.644,1.15,1.096,1.584
		c0.447,0.435,0.986,0.797,1.609,1.092C22.536,25.301,23.176,25.43,23.834,25.396z"/>
	<path opacity="0.4" fill="#FFFFFF" d="M23.886,35.479c0.311-0.032,0.625-0.112,0.935-0.231c0.313-0.123,0.58-0.307,0.807-0.549
		s0.406-0.51,0.545-0.804s0.19-0.632,0.154-1.013c0.036-0.278-0.017-0.583-0.154-0.911c-0.139-0.328-0.318-0.599-0.545-0.805
		c-0.227-0.21-0.494-0.394-0.807-0.547c-0.311-0.157-0.625-0.217-0.935-0.184c-0.384-0.033-0.72,0.025-1.013,0.184
		c-0.297,0.153-0.564,0.337-0.808,0.547c-0.241,0.206-0.415,0.468-0.521,0.776c-0.104,0.313-0.174,0.625-0.209,0.938
		c0.035,0.347,0.105,0.676,0.209,0.987c0.104,0.309,0.279,0.578,0.521,0.805c0.242,0.223,0.511,0.406,0.808,0.547
		c0.293,0.138,0.629,0.205,1.013,0.205V35.479z"/>
</g>
</svg>
