<?xml version="1.0" encoding="utf-8"?>
<!-- Generator: Adobe Illustrator 21.0.0, SVG Export Plug-In . SVG Version: 6.00 Build 0)  -->
<svg version="1.1" id="Layer_2" xmlns="http://www.w3.org/2000/svg" xmlns:xlink="http://www.w3.org/1999/xlink" x="0px" y="0px"
	 viewBox="0 0 96 96" style="enable-background:new 0 0 96 96;" xml:space="preserve">
<style type="text/css">
	.st0{opacity:0.5;fill:#FFFFFF;}
	.st1{fill:#FFFFFF;}
	.st2{opacity:0.75;fill:#FFFFFF;}
</style>
<g>
	<rect x="0.5" y="0" class="st0" width="95" height="95"/>
</g>
<path class="st1" d="M48,52.5c-9.7,0-17.6-7.9-17.6-17.6S38.3,17.3,48,17.3s17.6,7.9,17.6,17.6S57.7,52.5,48,52.5z M48,19.3
	c-8.6,0-15.6,7-15.6,15.6s7,15.6,15.6,15.6c8.6,0,15.6-7,15.6-15.6S56.6,19.3,48,19.3z"/>
<path class="st2" d="M78.8,76.4h-2v-1.6c0-7.6-6.2-13.8-13.8-13.8H33c-7.6,0-13.8,6.2-13.8,13.8v1.6h-2v-1.6
	c0-8.7,7.1-15.8,15.8-15.8h30c8.7,0,15.8,7.1,15.8,15.8V76.4z"/>
</svg>
