<?xml version="1.0" encoding="utf-8"?>
<!-- Generator: Adobe Illustrator 16.0.0, SVG Export Plug-In . SVG Version: 6.00 Build 0)  -->
<!DOCTYPE svg PUBLIC "-//W3C//DTD SVG 1.1//EN" "http://www.w3.org/Graphics/SVG/1.1/DTD/svg11.dtd">
<svg version="1.1" id="Layer_1" xmlns="http://www.w3.org/2000/svg" xmlns:xlink="http://www.w3.org/1999/xlink" x="0px" y="0px"
	 width="48px" height="48px" viewBox="0 0 48 48" enable-background="new 0 0 48 48" xml:space="preserve">
<path fill="none" stroke="#FFFFFF" stroke-width="2.2" stroke-linejoin="round" stroke-opacity="0.9" enable-background="new    " d="
	M25.6,24.084L45.965,7.673c0,0.065,0.008,0.1,0.023,0.1c0.018,0,0.025,0.034,0.025,0.101v0.1v21.364c0,0.635-0.117,1.2-0.353,1.7
	c-0.229,0.501-0.539,0.959-0.925,1.377c-0.385,0.416-0.842,0.726-1.375,0.925c-0.534,0.2-1.102,0.316-1.702,0.35l-24.464-0.049
	L6.338,43.745c-0.1,0.101-0.225,0.2-0.374,0.299c-0.151,0.103-0.302,0.169-0.451,0.202c-0.15,0.033-0.301,0.074-0.45,0.124
	c-0.15,0.052-0.309,0.06-0.476,0.024c-0.067,0.035-0.15,0.043-0.25,0.026c-0.1-0.019-0.191-0.026-0.275-0.026
	c-0.083,0-0.167-0.024-0.251-0.074c-0.083-0.049-0.157-0.074-0.225-0.074c-0.233-0.135-0.45-0.276-0.65-0.426
	c-0.2-0.15-0.366-0.334-0.499-0.551c-0.135-0.217-0.234-0.439-0.302-0.674c-0.065-0.234-0.1-0.484-0.1-0.752l-0.05-10.556V7.922
	v-0.1l0.05-0.1l20.362,16.361c0,0,0.676,0.703,1.602,0.703C24.926,24.787,25.6,24.084,25.6,24.084z"/>
<path fill="#FFFFFF" fill-opacity="0.4" d="M24,18.779L5.289,3.72c0.066-0.034,0.149-0.059,0.249-0.075
	c0.1-0.017,0.192-0.034,0.275-0.051C5.897,3.578,5.981,3.57,6.064,3.57s0.175,0,0.274,0H41.66c0.102,0,0.193,0,0.275,0
	c0.084,0,0.168,0.008,0.25,0.023c0.084,0.018,0.176,0.034,0.274,0.051c0.103,0.017,0.187,0.041,0.252,0.075L24,18.779z"/>
</svg>
