<?xml version="1.0" encoding="utf-8"?>
<!-- Generator: Adobe Illustrator 18.0.0, SVG Export Plug-In . SVG Version: 6.00 Build 0)  -->
<!DOCTYPE svg PUBLIC "-//W3C//DTD SVG 1.1//EN" "http://www.w3.org/Graphics/SVG/1.1/DTD/svg11.dtd">
<svg version="1.1" id="Layer_1" xmlns="http://www.w3.org/2000/svg" xmlns:xlink="http://www.w3.org/1999/xlink" x="0px" y="0px"
	 viewBox="0 0 64 64" enable-background="new 0 0 64 64" xml:space="preserve">
<path id="Home" display="none" fill="none" stroke="#FFFFFF" stroke-width="2" stroke-linejoin="round" stroke-miterlimit="10" d="
	M29.8,15.8L16.4,26.7c-0.2,0.2-0.4,0.5-0.4,0.8V48c0,0.6,0.4,1,1,1h9c0.6,0,1-0.4,1-1V35c0-0.6,0.4-1,1-1h8c0.6,0,1,0.4,1,1v13
	c0,0.6,0.4,1,1,1h9c0.6,0,1-0.4,1-1V27.5c0-0.3-0.1-0.6-0.4-0.8L34.2,15.8C32.9,14.7,31.1,14.7,29.8,15.8z"/>
<g id="Local" display="none">
	
		<circle display="inline" fill="none" stroke="#FFFFFF" stroke-width="2" stroke-linejoin="round" stroke-miterlimit="10" cx="32" cy="29.1" r="5"/>
	<path display="inline" fill="none" stroke="#FFFFFF" stroke-width="2" stroke-linejoin="round" stroke-miterlimit="10" d="M32,15.1
		c7.7,0,14,6.3,14,14c0,2-0.4,4-1.2,5.7c-0.6,1.4-1.5,2.8-2.6,3.9L32,48.9L21.8,38.7c-1.1-1.1-1.9-2.4-2.6-3.9
		c-0.8-1.7-1.2-3.7-1.2-5.7C18,21.4,24.3,15.1,32,15.1z"/>
</g>
<g id="Federation" display="none">
	<circle display="inline" fill="none" stroke="#FFFFFF" stroke-width="2" stroke-miterlimit="10" cx="32" cy="32" r="17"/>
	<ellipse display="inline" fill="none" stroke="#FFFFFF" stroke-width="2" stroke-miterlimit="10" cx="32" cy="32" rx="9" ry="17"/>
	<path display="inline" fill="none" stroke="#FFFFFF" stroke-width="2" stroke-miterlimit="10" d="M44,19.9c-1.9,3-6.9,5.1-12,5.1
		s-10.1-2.1-12-5.1"/>
	<path display="inline" fill="none" stroke="#FFFFFF" stroke-width="2" stroke-miterlimit="10" d="M20,44.1c1.9-3,6.9-5.1,12-5.1
		s10.1,2.1,12,5.1"/>
	<line display="inline" fill="none" stroke="#FFFFFF" stroke-width="2" stroke-miterlimit="10" x1="15" y1="32" x2="49" y2="32"/>
	<line display="inline" fill="none" stroke="#FFFFFF" stroke-width="2" stroke-miterlimit="10" x1="32" y1="15" x2="32" y2="49"/>
</g>
<g id="Search" display="none">
	
		<circle display="inline" fill="none" stroke="#FFFFFF" stroke-width="2" stroke-linejoin="round" stroke-miterlimit="10" cx="30" cy="30" r="14"/>
	
		<line display="inline" fill="none" stroke="#FFFFFF" stroke-width="2" stroke-linejoin="round" stroke-miterlimit="10" x1="48" y1="48" x2="40" y2="40"/>
</g>
<path id="Notification_1_" fill="none" stroke="#FFFFFF" stroke-width="2" stroke-linejoin="round" stroke-miterlimit="10" d="
	M40.1,46.5c1.4,1.5,3.4,2.5,5.6,2.5c1.5,0,2.9-0.4,4-1.2c-2.3-1.3-4-3.6-4.4-6.3c1.8-2.7,2.9-6,2.9-9.5c0-9.4-7.6-17-17-17
	s-17,7.6-17,17s7.6,17,17,17C34.5,49,37.5,48.1,40.1,46.5z"/>
</svg>
