<?xml version="1.0" encoding="utf-8"?>
<!-- Generator: Adobe Illustrator 18.0.0, SVG Export Plug-In . SVG Version: 6.00 Build 0)  -->
<!DOCTYPE svg PUBLIC "-//W3C//DTD SVG 1.1//EN" "http://www.w3.org/Graphics/SVG/1.1/DTD/svg11.dtd">
<svg version="1.1" id="Layer_1" xmlns="http://www.w3.org/2000/svg" xmlns:xlink="http://www.w3.org/1999/xlink" x="0px" y="0px"
	 viewBox="0 0 36 36" enable-background="new 0 0 36 36" xml:space="preserve">
<g>
	<g>
		<path fill="#FFFFFF" d="M23.1,5.9C19.2,2,12.8,2,8.9,5.9C5,9.8,5,16.1,8.9,20.1c3.9,3.9,10.2,3.9,14.1,0C27,16.1,27,9.8,23.1,5.9z
			 M21.6,18.6c-3.1,3.1-8.2,3.1-11.3,0c-3.1-3.1-3.1-8.2,0-11.3c3.1-3.1,8.2-3.1,11.3,0C24.8,10.4,24.8,15.5,21.6,18.6z M19,32h-2
			v-6h-2v6h-2c-0.6,0-1,0.4-1,1c0,0.6,0.4,1,1,1h6c0.6,0,1-0.4,1-1C20,32.4,19.6,32,19,32z"/>
	</g>
</g>
<path fill="#FFFFFF" d="M15.9,28c-3.9,0-7.7-1.5-10.6-4.4c-0.4-0.4-0.4-1,0-1.4c0.4-0.4,1-0.4,1.4,0c5.1,5.1,13.5,5,18.5,0
	c5-5,5-13.4,0-18.5c-0.4-0.4-0.4-1,0-1.4c0.4-0.4,1-0.4,1.4,0c5.9,5.9,5.9,15.4,0,21.3C23.7,26.5,19.8,28,15.9,28z"/>
</svg>
