<?xml version="1.0" encoding="utf-8"?>
<!-- Generator: Adobe Illustrator 16.0.0, SVG Export Plug-In . SVG Version: 6.00 Build 0)  -->
<!DOCTYPE svg PUBLIC "-//W3C//DTD SVG 1.1//EN" "http://www.w3.org/Graphics/SVG/1.1/DTD/svg11.dtd">
<svg version="1.1" id="Layer_1" xmlns="http://www.w3.org/2000/svg" xmlns:xlink="http://www.w3.org/1999/xlink" x="0px" y="0px"
	 width="64px" height="64px" viewBox="0 0 64 64" enable-background="new 0 0 64 64" xml:space="preserve">
<path opacity="0.6" fill="#FFFFFF" enable-background="new    " d="M27.414,46c-9.926,0-18.001-8.074-18.001-18
	c0-9.926,8.075-18,18.001-18c9.925,0,17.999,8.075,17.999,18C45.413,37.925,37.339,46,27.414,46z M27.414,12
	c-8.823,0-16.001,7.178-16.001,16c0,8.821,7.178,16,16.001,16c8.822,0,15.999-7.179,15.999-16C43.413,19.178,36.236,12,27.414,12z"
	/>
<path fill="#FFFFFF" d="M51.162,55.485c-0.039,0-0.079,0-0.118-0.002c-1.037-0.029-2.021-0.457-2.765-1.203L37.243,43.245
	l1.414-1.414l11.036,11.036c0.384,0.383,0.884,0.603,1.408,0.618c0.492-0.006,0.963-0.162,1.299-0.498
	c0.713-0.713,0.658-1.926-0.121-2.707L41.243,39.245l1.414-1.414l11.036,11.036c1.56,1.561,1.613,4.043,0.121,5.534
	C53.113,55.104,52.176,55.485,51.162,55.485z"/>
</svg>
