<?xml version="1.0" encoding="utf-8"?>
<!-- Generator: Adobe Illustrator 18.0.0, SVG Export Plug-In . SVG Version: 6.00 Build 0)  -->
<!DOCTYPE svg PUBLIC "-//W3C//DTD SVG 1.1//EN" "http://www.w3.org/Graphics/SVG/1.1/DTD/svg11.dtd">
<svg version="1.1" id="Layer_1" xmlns="http://www.w3.org/2000/svg" xmlns:xlink="http://www.w3.org/1999/xlink" x="0px" y="0px"
	 viewBox="18.9 0 60 60" enable-background="new 18.9 0 60 60" xml:space="preserve">
<path id="Home" display="none" fill="none" stroke="#FFFFFF" stroke-width="2" stroke-linejoin="round" stroke-miterlimit="10" d="
	M42,7.7l-18.6,15c-0.3,0.3-0.5,0.7-0.5,1V52c0,0.8,0.7,1.4,1.4,1.4h12.4c0.8,0,1.4-0.7,1.4-1.4V34.1c0-0.7,0.7-1.4,1.4-1.4h11.1
	c0.8,0,1.4,0.7,1.4,1.4V52c0,0.8,0.7,1.4,1.4,1.4h12.4c0.8,0,1.4-0.7,1.4-1.4V23.7c0-0.4-0.2-0.8-0.5-1l-18.5-15
	C46.3,6.2,43.7,6.2,42,7.7z"/>
<g id="Local" display="none">
	
		<circle display="inline" fill="none" stroke="#FFFFFF" stroke-width="2" stroke-linejoin="round" stroke-miterlimit="10" cx="45" cy="26.1" r="6.9"/>
	<path display="inline" fill="none" stroke="#FFFFFF" stroke-width="2" stroke-linejoin="round" stroke-miterlimit="10" d="M45,6.8
		c10.7,0,19.3,8.6,19.3,19.3c0,2.8-0.6,5.4-1.7,7.9c-0.8,2-2.1,3.8-3.6,5.3L45,53.3L30.9,39.3c-1.5-1.6-2.7-3.4-3.6-5.3
		c-1-2.4-1.7-5.1-1.7-7.9C25.7,15.4,34.3,6.8,45,6.8z"/>
</g>
<g id="Federation" display="none">
	<circle display="inline" fill="none" stroke="#FFFFFF" stroke-width="2" stroke-miterlimit="10" cx="45" cy="30" r="23.4"/>
	
		<ellipse display="inline" fill="none" stroke="#FFFFFF" stroke-width="2" stroke-miterlimit="10" cx="45" cy="30" rx="12.4" ry="23.4"/>
	<path display="inline" fill="none" stroke="#FFFFFF" stroke-width="2" stroke-miterlimit="10" d="M61.5,13.4
		c-2.6,4.1-9.5,6.9-16.5,6.9s-13.9-2.8-16.5-6.9"/>
	<path display="inline" fill="none" stroke="#FFFFFF" stroke-width="2" stroke-miterlimit="10" d="M28.5,46.6
		c2.6-4.1,9.5-6.9,16.5-6.9s13.9,2.8,16.5,6.9"/>
	
		<line display="inline" fill="none" stroke="#FFFFFF" stroke-width="2" stroke-miterlimit="10" x1="21.6" y1="30" x2="68.4" y2="30"/>
	
		<line display="inline" fill="none" stroke="#FFFFFF" stroke-width="2" stroke-miterlimit="10" x1="45" y1="6.6" x2="45" y2="53.4"/>
</g>
<g>
	
		<circle opacity="0.6" fill="none" stroke="#FFFFFF" stroke-width="3" stroke-linejoin="round" stroke-miterlimit="10" cx="46.2" cy="27.3" r="19.3"/>
	
		<line fill="none" stroke="#FFFFFF" stroke-width="3" stroke-linejoin="round" stroke-miterlimit="10" x1="70.9" y1="52" x2="60.9" y2="42"/>
</g>
<path id="Notification_1_" display="none" fill="none" stroke="#FFFFFF" stroke-width="2" stroke-linejoin="round" stroke-miterlimit="10" d="
	M56.3,50c1.9,2.2,4.6,3.5,7.7,3.5c2.1,0,3.9-0.6,5.5-1.7c-3.2-1.8-5.4-5-6.1-8.7c2.5-3.8,3.9-8.2,3.9-13c0-12.9-10.5-23.4-23.4-23.4
	S20.4,17.1,20.4,30s10.5,23.4,23.4,23.4C48.5,53.4,52.7,52.1,56.3,50z"/>
</svg>
