<?xml version="1.0" encoding="utf-8"?>
<!-- Generator: Adobe Illustrator 21.0.0, SVG Export Plug-In . SVG Version: 6.00 Build 0)  -->
<svg version="1.1" id="Layer_1" xmlns="http://www.w3.org/2000/svg" xmlns:xlink="http://www.w3.org/1999/xlink" x="0px" y="0px"
	 viewBox="0 0 227.9 240.1" style="enable-background:new 0 0 227.9 240.1;" xml:space="preserve">
<style type="text/css">
	.st0{opacity:0.5;fill:#FFFFFF;enable-background:new    ;}
	.st1{opacity:0.2;}
	.st2{fill:#FFFFFF;}
	.st3{opacity:0.2;enable-background:new    ;}
	.st4{opacity:0.5;enable-background:new    ;}
</style>
<g>
	<path class="st0" d="M109.8,117.4c0.8-6.7,7-11.5,13.7-10.7c6.7,0.8,11.5,7,10.7,13.7v0.4c0,0-0.1,0.4-0.2,1.2
		c-0.1,0.7-0.3,1.8-0.5,3.2c-0.4,2.8-1.1,6.6-2.2,11.2c-2.2,9.1-5.7,21.1-11.6,32.3c-1.5,2.8-3.2,5.5-4.9,8.1
		c-1.8,2.5-3.7,5-5.8,7.1c-1,1.1-2.1,2.1-3.2,3c-1,1-2.2,1.8-3.3,2.6c-2.3,1.6-4.6,2.7-6.8,3.6c-2.2,0.8-4.2,1.4-6.1,1.6
		c-1.8,0.4-3.4,0.3-4.7,0.4c-2.7-0.2-4.1-0.3-4.1-0.3s1.4-0.3,3.9-0.8c1.2-0.4,2.8-0.7,4.3-1.5c1.6-0.6,3.3-1.6,5-2.8
		c1.6-1.3,3.3-2.7,4.8-4.5c0.8-0.9,1.5-1.8,2.2-2.8c0.8-1,1.4-2.1,2-3.2c1.2-2.2,2.3-4.6,3.2-7.1s1.7-5.1,2.3-7.8
		c2.4-10.7,2.7-21.9,2.5-30.2c-0.1-4.2-0.4-7.6-0.6-10c-0.1-1.2-0.2-2.1-0.3-2.7s-0.1-0.9-0.1-0.9
		C109.8,119.6,109.8,118.5,109.8,117.4z"/>
	<g class="st1">
		<path class="st2" d="M204.1,4.7c-14.1,0.8-21.2,3.5-24.8,5.5c3.1,1,6.2,2,9.2,3.1C191.8,8.7,204.1,4.7,204.1,4.7z"/>
		<path class="st2" d="M90.2,169.3c-2.4,0-6,0-9.7,0v33.4c1,5.8,3.4,11.8,9.7,11.8c-2.4,0-6,0-9.7,0l0,16.4c3.1,0,7.2,0,11.5,0
			c27.7,0,32.3-77.8,32.3-77.8l0,93.7h20h19.6h14H306V136.9l-31.6-31.6c-0.3-2-0.5-4.1-0.9-6.1c1.4-4.8,2.2-10,2.2-15.3
			c0-30.9-25.1-55.9-55.9-55.9c-0.6,0-1.3,0.1-2,0.1c-17.3-9.3-45-22-72.8-22c0,0,19.4,5.5,30.7,13.8c-0.6,0-1.2,0-1.8,0
			c-11-3.3-25.5-5.9-43.2-5.2c0,0,14.5,2.4,26.5,7.4c-7.2,1.6-14.3,4-21.2,7.3c-33.6,16.1-53.6,48.9-55.1,83.7c1,5.5,3.5,11,9.5,11
			c-2.4,0-6,0-9.7,0v33.4C81.5,163.3,84,169.3,90.2,169.3z"/>
	</g>
	<path class="st3" d="M133,128.9c2.3-2.7,3.8-6.1,3.8-9.9c0-8.2-6.6-14.8-14.8-14.8s-14.8,6.6-14.8,14.8c0,3.6,1.3,6.8,3.4,9.4
		c-0.1-1.6-0.2-3-0.3-4.1c-0.1-1.2-0.2-2.1-0.3-2.7s-0.1-0.9-0.1-0.9c-0.1-1.1-0.1-2.2,0-3.3c0.8-6.7,7-11.5,13.7-10.7
		c6.7,0.8,11.5,7,10.7,13.7v0.4c0,0-0.1,0.4-0.2,1.2c-0.1,0.7-0.3,1.8-0.5,3.2C133.3,126.2,133.1,127.5,133,128.9z"/>
	<path class="st3" d="M144.6,75.3c26.1-18.5,54.9,10.2,36.4,36.4c-0.5,0.7-1.2,1.4-1.9,1.9c-26.2,18.5-54.9-10.3-36.4-36.4
		C143.1,76.5,143.8,75.8,144.6,75.3z"/>
	<circle class="st0" cx="157.4" cy="84.3" r="13.8"/>
	<circle class="st4" cx="154.1" cy="84.3" r="6.4"/>
	<path class="st3" d="M203.9,137.5c7.4,4.7,16.2,7.4,25.6,7.4c26.9,0,48.6-21.8,48.6-48.6c0-5.5-1-10.8-2.7-15.9
		c0.1,1.2,0.2,2.3,0.2,3.5c0,30.9-25.1,55.9-55.9,55.9C214.3,139.8,208.9,138.9,203.9,137.5z"/>
</g>
</svg>
