<?xml version="1.0" encoding="utf-8"?>
<!-- Generator: Adobe Illustrator 18.0.0, SVG Export Plug-In . SVG Version: 6.00 Build 0)  -->
<!DOCTYPE svg PUBLIC "-//W3C//DTD SVG 1.1//EN" "http://www.w3.org/Graphics/SVG/1.1/DTD/svg11.dtd">
<svg version="1.1" id="Layer_1" xmlns="http://www.w3.org/2000/svg" xmlns:xlink="http://www.w3.org/1999/xlink" x="0px" y="0px"
	 viewBox="0 0 48 48" enable-background="new 0 0 48 48" xml:space="preserve">
<path fill="#FFFFFF" d="M47.7,22.5c-0.2-0.8-0.5-1.6-1-2.3c-0.5-0.7-1-1.3-1.6-1.9s-1.3-1-2.1-1.4c0.1-0.2,0.2-0.5,0.3-0.7
	c0-0.3,0.1-0.5,0.2-0.8s0.1-0.5,0.1-0.8s0-0.6,0.1-0.8c0-1.3-0.3-2.5-0.7-3.6c-0.4-1.1-1-2.1-1.9-2.9s-1.7-1.5-2.8-2
	c-1-0.5-2.2-0.7-3.4-0.7c-0.3,0-0.5,0-0.8,0c-0.3,0-0.5,0.1-0.8,0.1c-0.2,0-0.5,0.1-0.8,0.2S32.1,5,31.9,5.1
	c-0.4-0.8-0.9-1.4-1.4-2.1s-1.1-1.2-1.8-1.6s-1.4-0.8-2.2-1C25.7,0.1,24.9,0,24,0c-0.8,0-1.7,0.1-2.5,0.4S20,1,19.3,1.4
	c-0.7,0.4-1.3,1-1.8,1.6c-0.6,0.6-1,1.3-1.3,2.1c-0.3-0.1-0.5-0.2-0.8-0.2c-0.2-0.1-0.5-0.1-0.8-0.2c-0.3,0-0.5-0.1-0.8-0.1
	c-0.2,0-0.5,0-0.8,0c-1.1,0-2.3,0.2-3.4,0.7c-1.1,0.5-2,1.1-2.8,2S5.5,9,5,10.1s-0.7,2.3-0.7,3.6c0,0.3,0,0.5,0,0.8s0.1,0.6,0.1,0.8
	c0,0.3,0.1,0.5,0.2,0.8c0.1,0.3,0.2,0.5,0.2,0.7c-0.7,0.4-1.3,0.9-2,1.4s-1.2,1.2-1.6,1.9c-0.4,0.7-0.7,1.5-1,2.3
	C0.1,23.4,0,24.3,0,25.2c0,0.8,0.1,1.7,0.3,2.5s0.5,1.5,0.9,2.2s0.8,1.3,1.4,1.9s1.2,1,1.8,1.4c0,0.1,0,0.2,0,0.3s-0.1,0.2,0,0.3
	c0,0.1,0,0.2,0,0.3c0,0.1,0,0.2,0,0.3c0,1.2,0.2,2.4,0.7,3.5C5.5,39,6.2,40,6.9,40.8s1.7,1.5,2.8,2s2.2,0.7,3.4,0.7
	c0.3,0,0.6,0,0.8,0c0.2,0,0.5-0.1,0.8-0.1c0.3,0,0.5-0.1,0.8-0.2c0.2-0.1,0.5-0.2,0.8-0.3c0.3,0.8,0.7,1.5,1.3,2.1
	c0.6,0.6,1.2,1.2,1.8,1.6c0.7,0.5,1.4,0.8,2.2,1.1s1.6,0.4,2.5,0.4c0.9,0,1.7-0.1,2.5-0.4c0.8-0.2,1.5-0.6,2.2-1.1s1.3-1,1.8-1.6
	c0.5-0.6,1-1.3,1.4-2.1c0.2,0.1,0.5,0.2,0.7,0.3c0.3,0.1,0.5,0.2,0.8,0.2c0.2,0,0.5,0.1,0.8,0.1c0.3,0,0.5,0,0.8,0
	c1.2,0,2.4-0.2,3.4-0.7s2-1.1,2.8-2s1.4-1.8,1.9-2.9c0.4-1.1,0.7-2.3,0.7-3.5c0-0.1-0.1-0.2,0-0.3s0-0.2,0-0.3c0-0.1,0-0.2,0-0.3
	s0-0.2-0.1-0.3c0.7-0.4,1.3-0.9,1.9-1.4c0.5-0.6,1-1.2,1.4-1.9c0.4-0.7,0.7-1.4,0.9-2.2c0.2-0.8,0.3-1.6,0.3-2.5
	C48,24.3,47.9,23.4,47.7,22.5z M35.8,18.5c-0.2,0.3-0.3,0.6-0.5,0.8h-0.1L22,32.6c0,0-0.1,0,0,0s0,0,0,0c-0.1,0.1-0.2,0.2-0.4,0.3
	c-0.2,0.1-0.3,0.2-0.4,0.2c-0.1,0-0.3,0.1-0.5,0.1c-0.2,0-0.3,0.1-0.4,0.1c-0.2,0-0.4,0-0.5-0.1c-0.1,0-0.3-0.1-0.5-0.1
	c-0.2,0-0.3-0.1-0.4-0.2c-0.1-0.1-0.3-0.2-0.4-0.3l-5.7-5.8c-0.3-0.2-0.5-0.5-0.6-0.8c-0.1-0.3-0.2-0.6-0.2-0.9c0-0.3,0-0.6,0.2-0.9
	c0.2-0.3,0.3-0.6,0.5-0.9c0.3-0.2,0.6-0.4,0.9-0.5s0.6-0.2,0.9-0.2c0.4,0,0.7,0.1,0.9,0.2c0.3,0.1,0.6,0.3,0.9,0.5l3.9,4l11.7-11.6
	c0.2-0.2,0.4-0.4,0.8-0.5s0.7-0.2,0.9-0.2s0.6,0.1,0.9,0.2s0.6,0.3,0.8,0.5c0.3,0.3,0.5,0.6,0.6,0.9c0.1,0.3,0.2,0.6,0.2,0.9
	C36.1,17.9,36,18.2,35.8,18.5z"/>
</svg>
